<svg width="108" height="40" viewBox="0 0 108 40" fill="none" xmlns="http://www.w3.org/2000/svg">
<path d="M54.514 23.14C53.6087 23.14 52.89 22.9347 52.358 22.524C51.8353 22.1133 51.574 21.558 51.574 20.858C51.574 20.158 51.8493 19.6027 52.4 19.192C52.96 18.7813 53.7207 18.576 54.682 18.576C55.186 18.576 55.634 18.6413 56.026 18.772C56.4273 18.9027 56.7493 19.08 56.992 19.304V18.604C56.992 18.1 56.8287 17.7173 56.502 17.456C56.1847 17.1853 55.7133 17.05 55.088 17.05C54.2573 17.05 53.5387 17.2413 52.932 17.624C52.7547 17.7267 52.6007 17.778 52.47 17.778C52.3487 17.778 52.2273 17.7267 52.106 17.624C52.0033 17.5213 51.952 17.4 51.952 17.26C51.952 17.1013 52.0313 16.9567 52.19 16.826C52.526 16.574 52.9507 16.3733 53.464 16.224C53.9773 16.0747 54.514 16 55.074 16C56.0913 16 56.8847 16.2333 57.454 16.7C58.0233 17.1573 58.308 17.8013 58.308 18.632V22.51C58.308 22.7153 58.252 22.874 58.14 22.986C58.0373 23.0887 57.8833 23.14 57.678 23.14C57.4727 23.14 57.314 23.0887 57.202 22.986C57.09 22.874 57.034 22.7247 57.034 22.538V22.146C56.474 22.8087 55.634 23.14 54.514 23.14ZM54.738 22.146C55.4193 22.146 55.9653 22.0247 56.376 21.782C56.796 21.53 57.006 21.2033 57.006 20.802C57.006 20.41 56.8053 20.1067 56.404 19.892C56.012 19.668 55.466 19.556 54.766 19.556C54.1593 19.556 53.6927 19.668 53.366 19.892C53.0393 20.116 52.876 20.438 52.876 20.858C52.876 21.2687 53.0347 21.586 53.352 21.81C53.6787 22.034 54.1407 22.146 54.738 22.146ZM62.8874 23.14C61.9541 23.14 61.2261 22.874 60.7034 22.342C60.1808 21.8007 59.9194 21.0587 59.9194 20.116V16.658C59.9194 16.4527 59.9754 16.294 60.0874 16.182C60.2088 16.0607 60.3674 16 60.5634 16C60.7688 16 60.9274 16.0607 61.0394 16.182C61.1514 16.294 61.2074 16.4527 61.2074 16.658V20.116C61.2074 20.732 61.3708 21.2127 61.6974 21.558C62.0334 21.894 62.5001 22.062 63.0974 22.062C63.8254 22.062 64.4088 21.8287 64.8474 21.362C65.2954 20.8953 65.5194 20.2747 65.5194 19.5V16.658C65.5194 16.4527 65.5754 16.294 65.6874 16.182C65.8088 16.0607 65.9721 16 66.1774 16C66.3828 16 66.5368 16.056 66.6394 16.168C66.7514 16.28 66.8074 16.4433 66.8074 16.658V22.482C66.8074 22.6967 66.7514 22.86 66.6394 22.972C66.5368 23.084 66.3828 23.14 66.1774 23.14C65.9721 23.14 65.8134 23.084 65.7014 22.972C65.5894 22.8507 65.5334 22.6873 65.5334 22.482V21.796C64.8334 22.692 63.9514 23.14 62.8874 23.14ZM73.5737 21.474C73.695 21.5767 73.7557 21.6933 73.7557 21.824C73.7557 21.936 73.7044 22.0713 73.6017 22.23C73.4057 22.51 73.1304 22.734 72.7757 22.902C72.421 23.0607 72.043 23.14 71.6417 23.14C70.979 23.14 70.4564 22.9533 70.0737 22.58C69.7004 22.1973 69.5137 21.6747 69.5137 21.012V17.19H68.8137C68.599 17.19 68.431 17.1433 68.3097 17.05C68.1977 16.9567 68.1417 16.826 68.1417 16.658C68.1417 16.4993 68.1977 16.3733 68.3097 16.28C68.431 16.1867 68.599 16.14 68.8137 16.14H69.5137V13.844C69.5137 13.6387 69.5697 13.48 69.6817 13.368C69.803 13.2467 69.9664 13.186 70.1717 13.186C70.377 13.186 70.531 13.242 70.6337 13.354C70.7457 13.466 70.8017 13.6293 70.8017 13.844V16.14H72.5237C72.7384 16.14 72.9017 16.1867 73.0137 16.28C73.135 16.364 73.1957 16.49 73.1957 16.658C73.1957 16.826 73.135 16.9567 73.0137 17.05C72.9017 17.1433 72.7384 17.19 72.5237 17.19H70.8017V21.124C70.8017 21.4227 70.881 21.656 71.0397 21.824C71.1984 21.9827 71.4224 22.062 71.7117 22.062C71.917 22.062 72.099 22.0293 72.2577 21.964C72.4164 21.8893 72.575 21.768 72.7337 21.6C72.911 21.4227 73.0744 21.334 73.2237 21.334C73.3544 21.334 73.471 21.3807 73.5737 21.474ZM78.3954 23.14C77.5834 23.14 76.8787 22.9813 76.2814 22.664C75.684 22.3467 75.2267 21.9173 74.9094 21.376C74.6014 20.8347 74.4474 20.2327 74.4474 19.57C74.4474 18.9073 74.6014 18.3053 74.9094 17.764C75.2267 17.2227 75.684 16.7933 76.2814 16.476C76.8787 16.1587 77.5834 16 78.3954 16C79.2074 16 79.9074 16.1587 80.4954 16.476C81.0927 16.7933 81.5454 17.2227 81.8534 17.764C82.1707 18.3053 82.3294 18.9073 82.3294 19.57C82.3294 20.2327 82.1707 20.8347 81.8534 21.376C81.5454 21.9173 81.0927 22.3467 80.4954 22.664C79.9074 22.9813 79.2074 23.14 78.3954 23.14ZM78.3954 22.062C79.198 22.062 79.8374 21.8427 80.3134 21.404C80.7894 20.9653 81.0274 20.354 81.0274 19.57C81.0274 18.786 80.7894 18.1747 80.3134 17.736C79.8374 17.2973 79.198 17.078 78.3954 17.078C77.5927 17.078 76.9487 17.2973 76.4634 17.736C75.9874 18.1747 75.7494 18.786 75.7494 19.57C75.7494 20.354 75.9874 20.9653 76.4634 21.404C76.9487 21.8427 77.5927 22.062 78.3954 22.062Z" fill="#3A3A3A"/>
<path d="M87.3338 23.14C86.5592 23.14 85.8825 22.9953 85.3038 22.706C84.7252 22.4167 84.2818 22.0013 83.9738 21.46C83.6658 20.9187 83.5118 20.284 83.5118 19.556C83.5118 18.8373 83.6658 18.212 83.9738 17.68C84.2818 17.1387 84.7252 16.7233 85.3038 16.434C85.8825 16.1447 86.5592 16 87.3338 16C88.0245 16 88.6312 16.1027 89.1538 16.308C89.6765 16.5133 90.0825 16.8073 90.3718 17.19C90.4652 17.2927 90.5118 17.414 90.5118 17.554C90.5118 17.722 90.4232 17.8713 90.2458 18.002C90.1712 18.0673 90.0685 18.1 89.9378 18.1C89.7325 18.1 89.5458 18.016 89.3778 17.848C88.9205 17.3347 88.2392 17.078 87.3338 17.078C86.5312 17.078 85.9105 17.2927 85.4718 17.722C85.0332 18.1513 84.8138 18.7627 84.8138 19.556C84.8138 20.3493 85.0332 20.9653 85.4718 21.404C85.9198 21.8427 86.5405 22.062 87.3338 22.062C87.7725 22.062 88.1785 21.9967 88.5518 21.866C88.9252 21.726 89.2425 21.5253 89.5038 21.264C89.6998 21.068 89.8865 20.97 90.0638 20.97C90.1758 20.97 90.2878 21.012 90.3998 21.096C90.5492 21.236 90.6238 21.39 90.6238 21.558C90.6238 21.698 90.5725 21.8193 90.4698 21.922C90.0218 22.342 89.5458 22.65 89.0418 22.846C88.5378 23.042 87.9685 23.14 87.3338 23.14ZM94.3675 23.14C93.4622 23.14 92.7435 22.9347 92.2115 22.524C91.6888 22.1133 91.4275 21.558 91.4275 20.858C91.4275 20.158 91.7028 19.6027 92.2535 19.192C92.8135 18.7813 93.5742 18.576 94.5355 18.576C95.0395 18.576 95.4875 18.6413 95.8795 18.772C96.2808 18.9027 96.6028 19.08 96.8455 19.304V18.604C96.8455 18.1 96.6822 17.7173 96.3555 17.456C96.0382 17.1853 95.5668 17.05 94.9415 17.05C94.1108 17.05 93.3922 17.2413 92.7855 17.624C92.6082 17.7267 92.4542 17.778 92.3235 17.778C92.2022 17.778 92.0808 17.7267 91.9595 17.624C91.8568 17.5213 91.8055 17.4 91.8055 17.26C91.8055 17.1013 91.8848 16.9567 92.0435 16.826C92.3795 16.574 92.8042 16.3733 93.3175 16.224C93.8308 16.0747 94.3675 16 94.9275 16C95.9448 16 96.7382 16.2333 97.3075 16.7C97.8768 17.1573 98.1615 17.8013 98.1615 18.632V22.51C98.1615 22.7153 98.1055 22.874 97.9935 22.986C97.8908 23.0887 97.7368 23.14 97.5315 23.14C97.3262 23.14 97.1675 23.0887 97.0555 22.986C96.9435 22.874 96.8875 22.7247 96.8875 22.538V22.146C96.3275 22.8087 95.4875 23.14 94.3675 23.14ZM94.5915 22.146C95.2728 22.146 95.8188 22.0247 96.2295 21.782C96.6495 21.53 96.8595 21.2033 96.8595 20.802C96.8595 20.41 96.6588 20.1067 96.2575 19.892C95.8655 19.668 95.3195 19.556 94.6195 19.556C94.0128 19.556 93.5462 19.668 93.2195 19.892C92.8928 20.116 92.7295 20.438 92.7295 20.858C92.7295 21.2687 92.8882 21.586 93.2055 21.81C93.5322 22.034 93.9942 22.146 94.5915 22.146ZM100.473 23.14C100.268 23.14 100.109 23.084 99.9969 22.972C99.8943 22.8507 99.8429 22.6873 99.8429 22.482V16.658C99.8429 16.2193 100.053 16 100.473 16C100.669 16 100.823 16.0607 100.935 16.182C101.047 16.294 101.103 16.4527 101.103 16.658V17.344C101.794 16.448 102.732 16 103.917 16C104.813 16 105.504 16.2613 105.989 16.784C106.484 17.2973 106.731 18.0253 106.731 18.968V22.482C106.731 22.6873 106.67 22.8507 106.549 22.972C106.437 23.084 106.283 23.14 106.087 23.14C105.882 23.14 105.723 23.084 105.611 22.972C105.499 22.8507 105.443 22.6873 105.443 22.482V18.968C105.443 18.3427 105.294 17.8713 104.995 17.554C104.706 17.2367 104.272 17.078 103.693 17.078C102.909 17.078 102.284 17.3113 101.817 17.778C101.36 18.2353 101.131 18.856 101.131 19.64V22.482C101.131 22.6873 101.07 22.8507 100.949 22.972C100.837 23.084 100.678 23.14 100.473 23.14Z" fill="#0075FF"/>
<circle cx="20" cy="20" r="19.5" stroke="#0075FF"/>
<path d="M31.4647 20.777C30.0083 20.777 28.8233 21.962 28.8233 23.4184C28.8233 24.8748 30.0083 26.0585 31.4647 26.0585C32.9211 26.0585 34.1055 24.8749 34.1055 23.4184C34.1054 21.962 32.9211 20.777 31.4647 20.777ZM31.4647 24.4088C30.9186 24.4088 30.4744 23.9646 30.4744 23.4191C30.4744 22.873 30.9186 22.4282 31.4647 22.4282C32.0102 22.4282 32.4543 22.873 32.4543 23.4191C32.4549 23.9646 32.0108 24.4088 31.4647 24.4088Z" fill="#0075FF"/>
<path d="M8.40542 20.777C6.94904 20.777 5.76462 21.962 5.76462 23.4184C5.76462 24.8748 6.94892 26.0585 8.40542 26.0585C9.86192 26.0585 11.0462 24.8749 11.0462 23.4184C11.0461 21.962 9.8618 20.777 8.40542 20.777ZM8.40542 24.4088C7.85989 24.4088 7.41518 23.9646 7.41518 23.4191C7.41518 22.873 7.86001 22.4282 8.40542 22.4282C8.95152 22.4282 9.39566 22.873 9.39566 23.4191C9.39635 23.9646 8.95221 24.4088 8.40542 24.4088Z" fill="#0075FF"/>
<path d="M26.3472 23.4638H13.3508V25.4444H26.3472V23.4638Z" fill="#0075FF"/>
<path d="M36.8975 19.4367L35.8212 16.9546L27.389 15.888L23.4317 12.0692H8.90088L8.16598 12.9174L2.64438 19.2926V22.6769H4.62498V20.0308L9.80509 14.0498H22.6188L26.7017 17.5491L34.7208 18.4083L35.6552 20.5276V20.9838V23.5605H37.241V20.184C37.1316 19.882 36.8975 19.4367 36.8975 19.4367Z" fill="#0075FF"/>
</svg>
