<svg width="20" height="18" viewBox="0 0 20 18" fill="none" xmlns="http://www.w3.org/2000/svg">
<g clip-path="url(#clip0_44_101)">
<path d="M11.655 9.71922C11.6391 9.72349 11.5756 9.72349 11.5478 9.72349H9.5002V10.2357H11.5835C11.5994 10.2357 11.7224 10.2357 11.7462 10.2314C12.1708 10.1887 12.3653 9.80886 12.3653 9.47592C12.3653 9.13445 12.1629 8.76736 11.778 8.72894C11.7026 8.72041 11.6391 8.72041 11.6113 8.72041H10.2502C10.1907 8.72041 10.1232 8.71614 10.0994 8.7076C9.99226 8.67772 9.95258 8.57528 9.95258 8.48991C9.95258 8.41308 9.99226 8.31064 10.1034 8.27649C10.1351 8.26795 10.1708 8.26369 10.2462 8.26369H12.2105V7.76001H10.2145C10.1312 7.76001 10.0677 7.76428 10.0161 7.77282C9.6748 7.82404 9.43671 8.11856 9.43671 8.49418C9.43671 8.80151 9.61528 9.16006 10.0081 9.21981C10.0796 9.22835 10.1788 9.22835 10.2224 9.22835H11.5478C11.5716 9.22835 11.6312 9.22835 11.6431 9.23262C11.7939 9.25396 11.8454 9.37348 11.8454 9.48019C11.8454 9.58263 11.7859 9.69361 11.655 9.71922Z" fill="#2D2D2D"/>
<path d="M7.77399 9.71922C7.75811 9.72349 7.69462 9.72349 7.67081 9.72349H5.61922V10.2357H7.70256C7.71843 10.2357 7.84145 10.2357 7.86526 10.2314C8.28986 10.1887 8.48431 9.80886 8.48431 9.47592C8.48431 9.13445 8.28193 8.76736 7.897 8.72894C7.82161 8.72041 7.75811 8.72041 7.73034 8.72041H6.36922C6.3097 8.72041 6.24224 8.71614 6.21843 8.7076C6.11128 8.67772 6.0716 8.57528 6.0716 8.48991C6.0716 8.41308 6.11128 8.31064 6.22239 8.27649C6.25414 8.26795 6.28985 8.26369 6.36525 8.26369H8.32954V7.76001H6.33351C6.25017 7.76001 6.18668 7.76428 6.13509 7.77282C5.79382 7.82404 5.55573 8.11856 5.55573 8.49418C5.55573 8.80151 5.7343 9.16006 6.12716 9.21981C6.19858 9.22835 6.29779 9.22835 6.34144 9.22835H7.66684C7.69065 9.22835 7.75018 9.22835 7.76208 9.23262C7.91288 9.25396 7.96446 9.37348 7.96446 9.48019C7.96446 9.58263 7.90891 9.69361 7.77399 9.71922Z" fill="#2D2D2D"/>
<path d="M4.55176 7.74292H4.03589V10.2485H4.55176V7.74292Z" fill="#2D2D2D"/>
<path d="M2.89702 10.2485V7.74292H2.38114V9.61249L0.662884 7.74292H0.000183105V10.2485H0.516058V8.37038L2.24622 10.2485H2.89702Z" fill="#2D2D2D"/>
<path d="M19.4883 7.74292V9.61249L17.7701 7.74292H17.1074V10.2485H17.6232V8.37038L19.3494 10.2485H20.0002V7.74292H19.4883Z" fill="#2D2D2D"/>
<path d="M14.4209 7.74292L12.9685 10.2485H13.5955L13.8534 9.80031H15.5479L15.8058 10.2485H16.4288L14.9764 7.74292H14.4209ZM15.282 9.32651H14.1193L14.7026 8.31916L15.282 9.32651Z" fill="#2D2D2D"/>
<path d="M2.86922 6.32155C3.9089 3.0562 6.77399 0.862224 10.0042 0.862224C13.2343 0.862224 16.1034 3.0562 17.1391 6.32155L17.1471 6.34716H19.4209V6.05264L18.4764 5.93312C17.8931 5.86056 17.7701 5.58311 17.6113 5.2331L17.5717 5.14773C16.2066 2.02324 13.2343 0 10.0042 0C6.77003 0 3.80176 2.02324 2.43668 5.15627L2.39699 5.24164C2.23826 5.59165 2.11525 5.8691 1.53191 5.94166L0.587463 6.06118V6.3557H2.85731L2.86922 6.32155Z" fill="#2D2D2D"/>
<path d="M17.147 11.6486L17.1391 11.6742C16.0994 14.9395 13.2343 17.1292 10.0042 17.1292C6.77399 17.1292 3.90494 14.9353 2.86922 11.6699L2.86128 11.6443H0.591431V11.9388L1.53588 12.0583C2.11921 12.1309 2.24223 12.4083 2.40096 12.7583L2.44064 12.8437C3.80573 15.9767 6.77796 18 10.0081 18C13.2383 18 16.2105 15.9767 17.5756 12.848L17.6153 12.7626C17.774 12.4126 17.8971 12.1352 18.4804 12.0626L19.4248 11.9431V11.6486H17.147Z" fill="#2D2D2D"/>
</g>
<defs>
<clipPath id="clip0_44_101">
<rect width="20" height="18" fill="white"/>
</clipPath>
</defs>
</svg>
