<svg width="17" height="18" viewBox="0 0 17 18" fill="none" xmlns="http://www.w3.org/2000/svg">
<path d="M8.60096 8.4842V0.809049C8.60096 0.548108 8.39228 0.339355 8.13143 0.339355C7.87059 0.339355 7.66191 0.548108 7.66191 0.809049V8.4842C6.5733 8.70339 5.74902 9.66713 5.74902 10.8222C5.74902 11.9773 6.5733 12.9411 7.66191 13.1603V16.5769C7.66191 16.8378 7.87059 17.0465 8.13143 17.0465C8.39228 17.0465 8.60096 16.8378 8.60096 16.5769V13.1603C9.68956 12.9411 10.5138 11.9773 10.5138 10.8222C10.5138 9.67061 9.69304 8.70339 8.60096 8.4842ZM8.13143 12.2661C7.33498 12.2661 6.68808 11.619 6.68808 10.8222C6.68808 10.0255 7.33498 9.37836 8.13143 9.37836C8.92789 9.37836 9.57479 10.0255 9.57479 10.8222C9.57479 11.619 8.92789 12.2661 8.13143 12.2661Z" fill="#2D2D2D"/>
<path d="M2.85194 4.54573V0.809049C2.85194 0.548108 2.64326 0.339355 2.38241 0.339355C2.12156 0.339355 1.91288 0.548108 1.91288 0.809049V4.54573C0.824279 4.76492 0 5.72866 0 6.88376C0 8.03886 0.824279 9.0026 1.91288 9.22179V16.5769C1.91288 16.8378 2.12156 17.0465 2.38241 17.0465C2.64326 17.0465 2.85194 16.8378 2.85194 16.5769V9.21831C3.94054 8.99912 4.76482 8.03538 4.76482 6.88028C4.76482 5.72518 3.94054 4.76492 2.85194 4.54573ZM2.38241 8.32763C1.58595 8.32763 0.939052 7.6805 0.939052 6.88376C0.939052 6.08702 1.58595 5.43988 2.38241 5.43988C3.17887 5.43988 3.82577 6.08702 3.82577 6.88376C3.82577 7.6805 3.17539 8.32763 2.38241 8.32763Z" fill="#2D2D2D"/>
<path d="M14.3152 4.54573V0.809049C14.3152 0.548108 14.1065 0.339355 13.8457 0.339355C13.5848 0.339355 13.3761 0.548108 13.3761 0.809049V4.54573C12.2875 4.76492 11.4633 5.72866 11.4633 6.88376C11.4633 8.03886 12.2875 9.0026 13.3761 9.22179V16.5803C13.3761 16.8413 13.5848 17.05 13.8457 17.05C14.1065 17.05 14.3152 16.8413 14.3152 16.5803V9.21831C15.4038 8.99912 16.2281 8.03538 16.2281 6.88028C16.2281 5.72518 15.4073 4.76492 14.3152 4.54573ZM13.8457 8.32763C13.0492 8.32763 12.4023 7.6805 12.4023 6.88376C12.4023 6.08702 13.0492 5.43988 13.8457 5.43988C14.6421 5.43988 15.289 6.08702 15.289 6.88376C15.289 7.6805 14.6421 8.32763 13.8457 8.32763Z" fill="#2D2D2D"/>
</svg>
