<svg width="162" height="70" viewBox="0 0 162 70" fill="none" xmlns="http://www.w3.org/2000/svg">
<path d="M34.565 62.3819C34.565 65.6095 31.9496 68.2254 28.724 68.2254C25.4984 68.2254 22.883 65.6095 22.883 62.3819C22.883 59.1543 25.4984 56.5385 28.724 56.5385C31.9496 56.5385 34.565 59.1543 34.565 62.3819Z" fill="white" stroke="#0075FF" stroke-width="2"/>
<path d="M54.099 62.3819C54.099 65.6095 51.4836 68.2254 48.258 68.2254C45.0324 68.2254 42.417 65.6095 42.417 62.3819C42.417 59.1543 45.0324 56.5385 48.258 56.5385C51.4836 56.5385 54.099 59.1543 54.099 62.3819Z" fill="white" stroke="#0075FF" stroke-width="2"/>
<path d="M158.909 53.5184L158.167 42.5936C158.003 40.3262 156.519 38.3474 154.376 37.5641L143.249 33.5652L132.864 17.8995C132.205 16.9101 131.092 16.2917 129.897 16.2917H112.629C110.651 16.2917 109.044 17.8995 109.044 19.8783V51.0861H107.231V9.7368C107.231 4.83095 103.274 0.873291 98.3704 0.873291V6.47997C100.513 6.47997 102.244 8.21145 102.244 10.3552V51.0449H101.296H84.7296H0V60.1969H19.7812C20.7703 56.1568 24.3968 53.1474 28.724 53.1474C33.0511 53.1474 36.6777 56.1568 37.6667 60.1969H39.274C40.263 56.1568 43.8896 53.1474 48.2167 53.1474C52.5439 53.1474 56.1704 56.1568 57.1595 60.1969H84.7708V64.1958H109.085H124.168H127.383C127.259 63.6187 127.218 63.0003 127.218 62.3819C127.218 57.1463 131.586 52.9 136.903 53.1886C141.353 53.3947 145.062 56.8577 145.598 61.2688C145.722 62.2583 145.68 63.2477 145.474 64.1958H155.53H159.651H162V53.5184H158.909ZM116.915 33.5652V20.8265H129.897L137.892 33.5652H116.915Z" fill="#0075FF"/>
<path d="M142.29 62.3819C142.29 65.6095 139.675 68.2254 136.449 68.2254C133.224 68.2254 130.608 65.6095 130.608 62.3819C130.608 59.1543 133.224 56.5385 136.449 56.5385C139.675 56.5385 142.29 59.1543 142.29 62.3819Z" fill="white" stroke="#0075FF" stroke-width="2"/>
</svg>
