<svg width="67" height="67" viewBox="0 0 67 67" fill="none" xmlns="http://www.w3.org/2000/svg">
<path d="M3.14057 0.838482C2.41577 1.04545 1.38063 2.09854 0.880307 3.09955C0.465846 3.98018 0 5.9308 0 6.89732V7.55339H3.84779H7.71316L7.92005 7.968C8.11004 8.29603 8.09247 8.43401 7.92005 8.74446C7.69558 9.08941 7.57523 9.10699 3.84779 9.10699H0V25.6778V42.2487H3.96882H7.93763L7.97212 25.6264L8.02418 9.02109H8.62795H9.23172L9.28379 15.9254C9.31827 22.0877 9.35275 22.8473 9.59412 23.0373C9.80102 23.1929 9.97343 23.1929 10.1979 23.0718C10.5082 22.9162 10.5258 22.4847 10.5258 12.8189V2.72079L10.0769 2.61731C9.8355 2.54832 9.55897 2.58281 9.49 2.6518C9.40346 2.73837 9.30001 3.89428 9.28311 5.22401L9.23105 7.64064L8.59279 7.69272L7.93696 7.7448V6.60581C7.93696 4.60378 7.26422 2.58417 6.26289 1.65147C5.34878 0.769493 4.31364 0.510445 3.14057 0.838482Z" fill="#0075FF"/>
<path d="M24.416 1.37346C23.9846 1.78739 21.3099 4.67004 18.4627 7.81174L13.2864 13.508V14.4922V15.4932H19.671H26.0725L26.4862 15.0616L26.9176 14.6477V7.63994V0.649081H26.0373C25.2611 0.648405 25.1063 0.717391 24.416 1.37346Z" fill="#0075FF"/>
<path d="M28.2983 6.87968C28.2983 12.2825 28.3328 13.0941 28.5397 12.9209C28.6776 12.7999 30.4721 10.8492 32.543 8.58817C35.2691 5.58445 36.3739 4.47996 36.6498 4.49754C36.8397 4.49754 40.9113 4.49754 45.6915 4.48063L54.3539 4.44614V2.97911C54.3539 1.63248 54.3194 1.46001 53.9226 1.08057L53.5081 0.649052H40.8944H28.2983V6.87968Z" fill="#0075FF"/>
<path d="M36.2527 6.65596C33.4232 9.6421 25.3307 18.6526 25.2273 18.9454C25.1583 19.1355 25.1238 19.6015 25.1583 19.9809L25.2273 20.6715H31.6632H38.1168L38.4616 20.2224C38.8064 19.7733 38.824 19.5839 38.824 12.8866V5.99922H37.8403C36.9431 5.9999 36.8227 6.0513 36.2527 6.65596Z" fill="#0075FF"/>
<path d="M40.2041 13.1457C40.2041 20.2576 40.2041 20.2745 39.8072 20.8616C39.6003 21.1896 39.0824 21.6212 38.6511 21.8281C37.9094 22.2252 37.7883 22.2252 31.4903 22.2252H25.1057L25.1233 44.0777L25.1409 65.9302L25.5202 66.2927L25.9002 66.6729H45.657H65.4315L65.8452 66.1893L66.2597 65.7057V36.2752V6.84471L65.8283 6.43078L65.4139 5.99926H52.8009H40.2048L40.2041 13.1457ZM55.0436 15.9249C55.6129 16.5288 55.5784 17.3229 54.9746 17.8579L54.5088 18.2549H48.6766C43.0344 18.2549 42.8275 18.2373 42.3785 17.8924C41.7916 17.4264 41.7572 16.4768 42.3096 15.8904L42.672 15.4933H48.6597H54.6474L55.0436 15.9249ZM54.9401 22.0872C55.5615 22.6567 55.6129 23.5542 55.0436 24.1237C54.7157 24.4517 54.4743 24.4686 48.711 24.4686C42.8099 24.4686 42.7233 24.4686 42.3265 24.0885C41.7741 23.5704 41.7916 22.6905 42.3609 22.1379L42.7754 21.7064H48.6421C54.4743 21.7077 54.5088 21.7077 54.9401 22.0872ZM60.7209 28.5261C61.8426 29.0956 61.6006 30.8048 60.3585 31.1152C60.1341 31.1673 53.3702 31.1842 45.3291 31.1673L30.6796 31.1152L30.2659 30.6316C29.7135 29.9756 29.731 29.3885 30.3524 28.7676L30.8527 28.2671H45.5542C58.0983 28.2671 60.3065 28.3016 60.7209 28.5261ZM61.0313 35.0334C61.5837 35.5515 61.5661 36.4314 60.9968 36.984L60.5823 37.4155H45.8125C34.9074 37.4155 30.9386 37.3634 30.6627 37.2086C29.7655 36.7425 29.5931 35.776 30.2828 35.0855L30.6965 34.6539H45.657H60.6344L61.0313 35.0334ZM60.4965 41.3858C61.3078 41.6962 61.6526 42.5078 61.3247 43.3709C61.0137 44.1473 61.1347 44.1473 45.5536 44.1473H30.852L30.3517 43.6468C30.0759 43.3709 29.8514 42.9563 29.8514 42.7317C29.8514 42.2136 30.3003 41.5751 30.7831 41.3851C31.3179 41.1612 59.9096 41.1781 60.4965 41.3858ZM61.0313 47.9796C61.5837 48.4977 61.5661 49.3776 60.9968 49.9302L60.5823 50.3617H45.6401H30.6972L30.2834 49.9302C30.0076 49.6712 29.8521 49.3087 29.8521 48.9806C29.8521 48.6526 30.0076 48.2901 30.2834 48.031L30.6972 47.5995H45.6577H60.6344L61.0313 47.9796ZM44.2764 53.3472C44.7943 53.9688 44.7943 54.5207 44.2764 55.1423L43.8626 55.6259H37.2711H30.6796L30.2659 55.1423C30.0414 54.8832 29.8514 54.4862 29.8514 54.2792C29.8514 53.7787 30.3003 53.1402 30.7831 52.9502C30.9731 52.8636 34.0095 52.8122 37.4956 52.8291L43.8626 52.8636L44.2764 53.3472Z" fill="#0075FF"/>
<path d="M13.2864 38.779V60.7012L13.7353 61.0462C14.1843 61.3911 14.4081 61.4087 18.9117 61.4087H23.6398V40.1771C23.6398 17.4439 23.6053 18.2724 24.4849 17.496C24.6749 17.3059 24.8473 17.099 24.8473 17.0124C24.8473 16.9434 22.2416 16.8744 19.0672 16.8744H13.2864V38.779Z" fill="#0075FF"/>
<path d="M0 49.2396V54.6769H3.96882H7.93763V49.2396V43.8024H3.96882H0V49.2396Z" fill="#0075FF"/>
<path d="M0 56.3684C0 56.455 0.310338 56.99 0.672738 57.5595C1.13858 58.2846 1.53547 59.2856 1.98441 60.8216C2.34681 62.0472 2.77817 63.2037 2.95058 63.4107C3.19196 63.6697 3.2785 64.0147 3.2785 64.7228C3.2785 65.6894 3.55436 66.2419 4.03778 66.2419C4.48672 66.2419 4.65913 65.7935 4.65913 64.7059C4.65913 64.0329 4.74568 63.4804 4.88361 63.3248C5.02153 63.1699 5.4529 62.0823 5.86736 60.8913C6.26424 59.7002 6.9025 58.2677 7.2649 57.6806C7.6442 57.1111 7.93763 56.5416 7.93763 56.4374C7.93763 56.2819 6.9025 56.2305 3.96882 56.2305C1.79442 56.2298 0 56.2994 0 56.3684Z" fill="#0075FF"/>
</svg>
