<svg width="70" height="70" viewBox="0 0 70 70" fill="none" xmlns="http://www.w3.org/2000/svg">
<path d="M48.2222 69.6738H5.64739C2.53354 69.6738 0 67.1394 0 64.0244V6.29857C0 3.18361 2.53354 0.64917 5.64739 0.64917H48.2222C50.7911 0.64917 53.0415 2.38364 53.6855 4.86852C53.8978 5.68266 53.4095 6.51096 52.6028 6.72334C51.7889 6.93573 50.9609 6.44724 50.7486 5.64018C50.4514 4.49331 49.4111 3.68626 48.2151 3.68626H5.64739C4.20369 3.68626 3.02892 4.86144 3.02892 6.30565V64.0315C3.02892 65.4757 4.20369 66.6438 5.64739 66.6438H48.2222C49.6659 66.6438 50.8335 65.4687 50.8335 64.0315V50.8779C50.8335 50.0425 51.5129 49.3629 52.348 49.3629C53.1831 49.3629 53.8625 50.0425 53.8625 50.8779V64.0244C53.8766 67.1394 51.3431 69.6738 48.2222 69.6738Z" fill="#0075FF"/>
<path d="M41.6972 18.7088H7.82708C6.99201 18.7088 6.31262 18.0292 6.31262 17.1938C6.31262 16.3585 6.99201 15.6788 7.82708 15.6788H41.6972C42.5323 15.6788 43.2117 16.3585 43.2117 17.1938C43.2117 18.0292 42.5394 18.7088 41.6972 18.7088Z" fill="#0075FF"/>
<path d="M32.4335 32.9314H7.82708C6.99201 32.9314 6.31262 32.2517 6.31262 31.4164C6.31262 30.581 6.99201 29.9014 7.82708 29.9014H32.4335C33.2686 29.9014 33.948 30.581 33.948 31.4164C33.948 32.2517 33.2686 32.9314 32.4335 32.9314Z" fill="#0075FF"/>
<path d="M22.6886 47.1542H7.82708C6.99201 47.1542 6.31262 46.4745 6.31262 45.6392C6.31262 44.8038 6.99201 44.1241 7.82708 44.1241H22.6815C23.5166 44.1241 24.196 44.8038 24.196 45.6392C24.196 46.4745 23.5237 47.1542 22.6886 47.1542Z" fill="#0075FF"/>
<path d="M44.8606 48.8389L39.9493 45.8443C38.3711 44.8815 37.8262 42.871 38.7462 41.3701L58.2643 9.29312C59.1843 7.78519 61.2154 7.34627 62.7936 8.30907L67.705 11.3037C69.2831 12.2665 69.828 14.2771 68.908 15.7779L49.3899 47.8549C48.4699 49.3557 46.4388 49.8018 44.8606 48.8389ZM61.2154 10.9002C61.0385 10.794 60.8828 10.8364 60.8616 10.8718L41.3363 42.9488C41.3151 42.9842 41.3434 43.1471 41.5274 43.2533L46.4388 46.2479C46.6157 46.3541 46.7714 46.3116 46.7926 46.2762L66.3108 14.1992C66.332 14.1638 66.3037 14.001 66.1197 13.8948L61.2154 10.9002Z" fill="#0075FF"/>
<path d="M38.2365 54.2406C37.7623 53.9503 37.4651 53.4123 37.5146 52.8247L38.3002 42.9842C38.3639 42.1488 39.0999 41.5259 39.935 41.5896C40.77 41.6533 41.3928 42.3895 41.3291 43.2249L40.5436 53.0654C40.4799 53.9007 39.7439 54.5237 38.9088 54.46C38.6611 54.4388 38.4346 54.3609 38.2365 54.2406Z" fill="#0075FF"/>
<path d="M38.2366 54.2406C38.0384 54.1202 37.8686 53.9574 37.7412 53.745C37.2954 53.03 37.5147 52.0955 38.2295 51.6566L46.6086 46.439C47.3234 45.993 48.2575 46.2125 48.6963 46.9275C49.1421 47.6425 48.9227 48.577 48.208 49.016L39.8289 54.2335C39.3264 54.545 38.7107 54.5309 38.2366 54.2406Z" fill="#0075FF"/>
<path d="M65.2208 18.9141L57.422 14.1638C56.7073 13.7249 56.4808 12.7904 56.9125 12.0754C57.3513 11.3603 58.2854 11.1338 59.0002 11.5657L66.799 16.316C67.5137 16.7549 67.7402 17.6894 67.3085 18.4044C66.8697 19.1265 65.9356 19.3531 65.2208 18.9141Z" fill="#0075FF"/>
</svg>
