<svg width="91" height="71" viewBox="0 0 91 71" fill="none" xmlns="http://www.w3.org/2000/svg">
<path d="M87.1153 27.9865V16.2843H80.3351L70.8019 0.0897522H31.9456L22.8041 15.6386L5.36245 3.04974L3.69423 5.29051L18.9301 16.2843H3.11685V27.9865H0.5V33.5315H3.12168V37.8077H19.4255V36.4215C19.4255 33.4342 21.9013 30.9976 24.9425 30.9976C27.98 30.9976 30.451 33.4342 30.451 36.4215V37.8077H37.3156V40.0223H41.2752V67.3423H32.7123V70.1148H58.2841V67.3423H49.7224V40.0223H53.6784V37.8077H58.8675C59.5389 41.6721 62.9332 44.619 67.0411 44.619C71.1538 44.619 74.5554 41.6721 75.2268 37.8077H87.1117V33.5315H90.5V27.9865H87.1153ZM67.0435 41.8525C64.0084 41.8525 61.5398 39.4218 61.5398 36.4215C61.5398 33.4342 64.0096 30.9976 67.0435 30.9976C70.0847 30.9976 72.5593 33.4342 72.5593 36.4215C72.5593 39.4218 70.0847 41.8525 67.0435 41.8525ZM84.2996 35.0364H75.2316C74.5602 31.1744 71.1599 28.2251 67.0472 28.2251C62.9393 28.2251 59.5425 31.1744 58.8723 35.0364H33.1474C32.4772 31.172 29.0516 28.2251 24.9412 28.2251C20.8261 28.2251 17.3956 31.172 16.7279 35.0364H5.93742V19.0567H24.0481L33.5741 2.86222H69.1831L78.7127 19.0567H84.3056V35.0364H84.2996ZM49.673 6.33493H65.6357V18.9511H49.673V6.33493ZM68.4514 8.54721L74.5723 18.9487H68.4514V8.54721ZM35.6003 6.33493H46.8572V18.9511H28.174L35.6003 6.33493ZM21.6301 43.4143C17.0328 43.4143 13.2962 47.0912 13.2962 51.6119C13.2962 54.0639 14.422 56.2465 16.171 57.7514H13.882V63.2964H29.3806V57.7514H27.0916C28.8346 56.2465 29.9664 54.0651 29.9664 51.6119C29.9556 47.0912 26.2213 43.4143 21.6301 43.4143ZM21.6301 57.7514C18.5902 57.7514 16.1119 54.6015 16.1119 51.6131C16.1119 48.6187 18.5902 46.188 21.6301 46.188C24.6664 46.188 27.1374 48.6187 27.1374 51.6131C27.1398 54.6015 24.6712 57.7514 21.6301 57.7514ZM13.882 64.5687H29.3806V70.1136H13.882V64.5687Z" fill="#0075FF"/>
</svg>
