<svg width="69" height="69" viewBox="0 0 69 69" fill="none" xmlns="http://www.w3.org/2000/svg">
<path d="M32.0077 0.685608C26.0822 1.94606 22.0607 7.44442 22.7439 13.2915C22.9581 15.1157 23.4145 16.3628 24.7683 18.8837L25.9884 21.1231L21.2025 27.466C18.5747 30.9392 16.3767 33.8495 16.3228 33.9034C16.2689 33.9573 15.7733 33.8635 15.1965 33.6751C9.37809 31.7704 3.06409 34.7479 0.784893 40.4605C-0.0593073 42.5536 -0.233607 45.2355 0.315893 47.5422C0.623893 48.8159 1.12019 49.7816 6.87139 60.403C10.8663 67.7787 11.5635 68.9992 11.7112 68.8116C11.7917 68.6778 14.2312 64.2249 17.1005 58.9009C20.814 52.0343 22.4359 48.8831 22.704 48.0785C23.0526 47.0324 23.0792 46.7642 23.0792 44.793C23.0925 43.1166 23.0393 42.4597 22.8517 41.7756C22.235 39.5761 20.6936 37.149 19.0444 35.8081C18.6153 35.446 18.2667 35.0973 18.28 35.0168C18.2933 34.869 27.0069 23.2687 27.1014 23.2687C27.128 23.2687 28.7366 26.2188 30.6805 29.8398C32.6244 33.4475 34.2463 36.3977 34.2869 36.3977C34.3275 36.3977 35.9494 33.4475 37.8933 29.8398C39.8372 26.2188 41.4325 23.2687 41.4591 23.2687C41.5396 23.2687 50.3071 34.9629 50.3071 35.0567C50.3071 35.1239 49.9585 35.4593 49.5294 35.8074C47.8935 37.135 46.4193 39.3877 45.8159 41.5067C45.1992 43.6257 45.3336 46.8307 46.0973 48.7886C46.3654 49.4594 56.4867 68.3011 56.8486 68.7975C57.0096 68.9985 57.6529 67.8585 62.3051 59.2762C65.201 53.9116 67.721 49.124 67.9086 48.6282C69.45 44.4302 68.3643 39.6832 65.1471 36.4915C64.0348 35.3914 63.3908 34.9355 61.9698 34.2521C59.2755 32.951 56.2186 32.7368 53.3766 33.6758C52.8138 33.8502 52.3308 33.9839 52.3175 33.9706C52.2909 33.944 50.1055 31.0471 47.4378 27.5199L42.598 21.0958L43.3484 19.7415C45.4932 15.7984 45.8418 14.7256 45.8418 12.0703C45.8418 10.716 45.7879 10.0858 45.5604 9.25388C44.3942 4.8549 40.9621 1.59593 36.5381 0.684204C35.2921 0.430717 33.2005 0.430717 32.0077 0.685608ZM35.9627 5.99631C36.8076 6.21059 37.7589 6.74697 38.4561 7.40451C42.0625 10.7706 40.5743 16.7248 35.8283 17.972C32.9597 18.7094 30.0505 17.3418 28.71 14.6192C28.2676 13.7075 28.2004 13.4393 28.1472 12.3798C28.0667 10.8911 28.3481 9.76435 29.0453 8.67827C30.5601 6.33103 33.2411 5.29886 35.9627 5.99631ZM13.8161 38.8121C14.2319 38.9732 14.9151 39.3618 15.3176 39.6706C19.0311 42.5004 18.4543 48.0926 14.2452 50.1716C13.3604 50.6008 13.0657 50.6814 12.0731 50.7346C10.062 50.8417 8.68159 50.3593 7.31379 49.0449C6.36179 48.1332 5.69189 46.8594 5.46369 45.545C4.96739 42.6082 6.81749 39.6307 9.72669 38.6784C10.7865 38.329 12.7164 38.3962 13.8161 38.8121ZM58.8058 38.6777C61.071 39.3751 62.7335 41.333 63.1094 43.7202C63.4174 45.6375 62.7069 47.6626 61.2593 49.0442C59.9055 50.3453 58.5783 50.8277 56.6211 50.7339C55.5487 50.694 55.2673 50.6268 54.3419 50.1842C49.234 47.7571 49.7569 40.408 55.1728 38.6777C56.2053 38.3563 57.7607 38.3563 58.8058 38.6777Z" fill="#0075FF"/>
</svg>
